# xmcd
#
# Track frame offsets: 
#        150
#        35542
#        64016
#        82387
#        113197
#        140304
#        171964
#        203628
#        234753
#        257677
#        277329
#        300502
#        318477
#
# Disc length: 4666 seconds
#
# Revision: 0
# Processed by: cddbd v1.5.2PL0 Copyright (c) Steve Scherf et al.
# Submitted via: ExactAudioCopy v0.99pb4
#
DISCID=b812380d
DTITLE=Various Artist - Chicago Masters: Legend Of House 1985-2006 (Disc1)
DYEAR=2006
DGENRE=House
TTITLE0=DARRYL PANDY - Searchin' for Love (Original Mix)
TTITLE1=ADONIS - Do It Properly (Original Club Mix)
TTITLE2=ARMANDO - 100% of Dissin U (Original Mix)
TTITLE3=JESSE VALEZ - Girls and Boys (Original Club Mix)
TTITLE4=MR. FINGERS - Can You Feel It (Alternative Version)
TTITLE5=PIERRE'S PHUTURE PFANTASY CLUB - Fantasy Girl (Full Vocal Mix)
TTITLE6=MASTER C and J - Face It (12" Version)
TTITLE7=HERCULES with MARSHALL JEFFERSON - 7 Ways (Club Mix)
TTITLE8=ADONIS - No Way Back (Vocal Mix)
TTITLE9=MR. FINGERS - Washing Machine (Acid 12" Mix)
TTITLE10=FARLEY "JACKMASTER" FUNK - Jackin The Trax (Extended Mix)
TTITLE11=KEVIN IRVING - Children of The Night (Original Mix)
TTITLE12=RALPHI ROSARIO - You Used to Hold Me (Kenny "Jammin" Jason Mi
TTITLE12=x)
EXTD=
EXTT0=
EXTT1=
EXTT2=
EXTT3=
EXTT4=
EXTT5=
EXTT6=
EXTT7=
EXTT8=
EXTT9=
EXTT10=
EXTT11=
EXTT12=
PLAYORDER=
